# xmcd
#
# Track frame offsets: 
#        150
#        24513
#        50631
#        74071
#        89821
#        102565
#        118060
#        141495
#        161385
#        178773
#        199213
#        225806
#        241950
#        255610
#        282313
#        304312
#        327252
#
# Disc length: 4792 seconds
#
# Revision: 0
# Processed by: cddbd v1.5.2PL0 Copyright (c) Steve Scherf et al.
# Submitted via: ExactAudioCopy v1.3
#
DISCID=0312b611
DTITLE=Various Artist - Blues - Golden Age '60s -'70s  vol.04  CD2
DYEAR=2017
DGENRE=Rock
TTITLE0=Rory Gallagher (1976) - Calling Card
TTITLE1=Lynyrd Skynyrd (1977) - That Smell
TTITLE2=Nazareth (1974) - Loved And Lost
TTITLE3=Free (1968) - Walk In My Shadow
TTITLE4=The Doors (1970) - Peace Frog
TTITLE5=Deep Purple  (1974) - You Can't Do It Right (With The One You 
TTITLE5=Love)
TTITLE6=Grand Funk Railroad (1971) - People, Let's Stop The War
TTITLE7=Jimi Hendrix (1970) - Angel
TTITLE8=Dr. Feelgood (1977) - Sneakin' Suspicion
TTITLE9=Ufo (1976) - Belladonna
TTITLE10=John Mayall and The Bluesbreakers (1966) - Have You Heard
TTITLE11=Blackfoot (1979) - Train, Train
TTITLE12=T. Rex (1971) - Lean Woman Blues
TTITLE13=Budgie (1980) - Panzer Division Destroyed
TTITLE14=Steppenwolf (1970) - Ball Crusher
TTITLE15=Bad Company (1974) - The Way I Choose
TTITLE16=Led Zeppelin (1971) - When The Levee Breaks
EXTD=
EXTT0=
EXTT1=
EXTT2=
EXTT3=
EXTT4=
EXTT5=
EXTT6=
EXTT7=
EXTT8=
EXTT9=
EXTT10=
EXTT11=
EXTT12=
EXTT13=
EXTT14=
EXTT15=
EXTT16=
PLAYORDER=
